<svg width="999" height="744" viewBox="0 0 999 744" fill="none" xmlns="http://www.w3.org/2000/svg">
<path d="M337.432 289.924C355.119 343.244 372.861 400.455 392.658 452.986C392.994 453.885 393.041 455.822 394.205 455.713L515.314 116.651L517.603 116.69L621.166 428.354L650.744 412.635L653.643 408.44C672.174 348.572 690.103 288.416 708.853 228.557C714.885 209.283 727.682 179.768 730.588 161.229C734.158 138.385 719.955 126.408 698.08 127.252L697.346 122.908H820.01L819.275 128.033C796.08 126.83 781.986 142.104 773.244 161.69L686.424 397.908C689.377 396.377 692.611 395.354 695.791 394.393C733.15 383.182 780.643 382.041 818.158 393.088C865.947 407.158 913.846 437.322 928.986 490.096C954.01 577.299 876.221 645.651 794.643 650.283C723.916 654.299 664.447 624.619 634.174 559.908C619.041 527.557 609.814 490.815 597.705 456.533C597.268 455.283 595.416 449.682 594.564 449.486C547.283 479.596 505.299 517.252 462.979 553.783C461.033 555.463 449.643 563.768 449.994 565.143C454.658 571.362 460.541 576.541 465.736 582.252C506.205 626.744 550.752 668.455 604.353 697.541C718.228 759.33 864.361 758.987 948.432 649.401C1044.6 524.049 982.299 369.416 834.228 330.174C801.744 321.565 768.846 320.213 735.619 325.26L735.713 322.619L736.908 321.471C846.322 303.221 969.932 368.049 994.635 480.705C1017.56 585.283 945.682 693.643 848.314 728.971C785.432 751.791 710.58 746.057 648.705 722.721C567.541 692.112 502.713 632.869 446.869 568.283C445.275 567.901 424.447 585.971 421.143 588.518C335.182 654.807 213.424 708.799 105.158 664.697C16.0176 628.385 -26.9512 522.69 18.0175 435.393C78.2441 318.486 237.486 342.158 322.697 415.901L357.486 448.299C331.674 374.151 305.916 299.924 279.885 225.901C258.525 165.174 236.932 75.6896 187.182 32.6661C164.721 13.2443 134.955 2.29115 105.135 2.59584V0.25991C107.854 0.173973 110.603 0.37709 113.33 0.25209C201.557 -3.77135 251.283 40.5568 281.502 119.596C302.775 175.244 318.752 233.65 337.416 289.932L337.432 289.924ZM453.072 380.955C451.525 385.205 450.588 390.588 448.916 395.19C434.721 434.283 420.143 473.268 405.963 512.369L446.268 561.143C448.291 561.76 451.291 557.369 452.799 556.096C498.533 517.518 543.533 477.682 593.314 444.315L516.861 209.627C515.791 209.393 516.018 210.44 515.713 211.182C508.26 229.08 502.314 248.572 495.611 266.877C481.728 304.791 466.76 343.283 453.072 380.947V380.955ZM394.205 544.783L391.838 544.424L362.853 460.908C302.057 389.197 194.533 333.697 100.064 368.205C6.25973 402.471 -22.045 519.736 32.3222 600.041C87.3066 681.252 192.822 688.932 279.783 661.205C340.244 641.932 396.033 605.354 443.424 563.924L403.978 517.447L394.205 544.791V544.783ZM682.635 404.276C682.51 404.479 683.205 405.635 682.9 406.479C669.861 443.135 655.197 479.268 643.025 516.252C658.244 604.166 730.307 662.721 820.627 641.908C948.846 612.361 969.978 465.229 848.643 408.713C803.971 387.908 749.885 384.338 702.471 397.19C699.471 398.002 683.674 402.58 682.635 404.276ZM650.463 418.229C649.002 417.127 625.564 430.651 622.283 432.815L633.666 469.776L650.455 418.221L650.463 418.229Z" fill="url(#paint0_linear_243_2739)"/>
<defs>
<linearGradient id="paint0_linear_243_2739" x1="0.00192508" y1="371.713" x2="998.916" y2="371.713" gradientUnits="userSpaceOnUse">
<stop stop-color="#F3F3F3"/>
<stop offset="1" stop-color="white"/>
</linearGradient>
</defs>
</svg>
