<svg width="110" height="69" viewBox="0 0 110 69" fill="none" xmlns="http://www.w3.org/2000/svg">
<g filter="url(#filter0_d_103_1596)">
<path d="M41.429 23.5538C42.866 27.8856 44.3074 32.5335 45.9157 36.8012C45.943 36.8742 45.9468 37.0316 46.0414 37.0228L55.8805 9.47685L56.0664 9.48002L64.48 34.8L66.883 33.523L67.1184 33.1822C68.624 28.3185 70.0806 23.4313 71.6039 18.5683C72.0938 17.0025 73.1335 14.6046 73.3696 13.0984C73.6597 11.2426 72.5058 10.2696 70.7286 10.3381L70.6689 9.98524H80.6343L80.5747 10.4016C78.6903 10.3039 77.5453 11.5447 76.835 13.1359L69.7816 32.3266C70.0216 32.2022 70.2843 32.1191 70.5426 32.041C73.5778 31.1302 77.4361 31.0375 80.4839 31.935C84.3664 33.0781 88.2577 35.5287 89.4877 39.8161C91.5207 46.9006 85.201 52.4535 78.5735 52.8299C72.8276 53.1562 67.9962 50.7449 65.5368 45.4877C64.3074 42.8594 63.5578 39.8745 62.574 37.0894C62.5385 36.9878 62.388 36.5328 62.3189 36.5169C58.4777 38.963 55.0668 42.0223 51.6286 44.9901C51.4706 45.1266 50.5452 45.8013 50.5738 45.913C50.9527 46.4182 51.4306 46.839 51.8527 47.303C55.1404 50.9176 58.7595 54.3062 63.1141 56.6692C72.3655 61.689 84.2375 61.6611 91.0675 52.7582C98.88 42.5745 93.8189 30.0119 81.7895 26.8238C79.1504 26.1243 76.4777 26.0145 73.7783 26.4246L73.786 26.21L73.8831 26.1167C82.772 24.6341 92.8142 29.9008 94.8211 39.0532C96.6833 47.5492 90.8441 56.3525 82.9339 59.2226C77.8252 61.0765 71.7441 60.6107 66.7173 58.7148C60.1234 56.2281 54.8567 51.4152 50.3199 46.1681C50.1904 46.137 48.4983 47.6051 48.2298 47.812C41.2462 53.1974 31.3545 57.5838 22.5588 54.0009C15.3169 51.0508 11.8261 42.464 15.4794 35.3719C20.3723 25.8743 33.3093 27.7974 40.232 33.7883L43.0583 36.4204C40.9613 30.3965 38.8687 24.3662 36.7538 18.3525C35.0186 13.419 33.2643 6.14913 29.2225 2.65384C27.3978 1.07598 24.9796 0.186136 22.5569 0.21089V0.0211155C22.7778 0.0141338 23.0012 0.0306353 23.2227 0.0204802C30.3904 -0.306389 34.4302 3.29489 36.8852 9.71613C38.6135 14.2371 39.9115 18.9821 41.4278 23.5545L41.429 23.5538ZM50.8238 30.9493C50.6982 31.2946 50.622 31.7319 50.4862 32.1057C49.3329 35.2818 48.1486 38.4489 46.9966 41.6256L50.271 45.588C50.4354 45.6381 50.6791 45.2814 50.8016 45.178C54.5171 42.0438 58.173 38.8075 62.2173 36.0967L56.0061 17.0304C55.9192 17.0114 55.9376 17.0964 55.9128 17.1567C55.3074 18.6108 54.8243 20.1944 54.2798 21.6815C53.1519 24.7617 51.9358 27.8888 50.8238 30.9487V30.9493ZM46.0414 44.2589L45.8491 44.2298L43.4943 37.4448C38.5551 31.6189 29.8198 27.11 22.145 29.9135C14.5242 32.6973 12.2247 42.2241 16.6415 48.7482C21.1085 55.3459 29.6808 55.9698 36.7456 53.7172C41.6575 52.1514 46.1899 49.1798 50.04 45.814L46.8354 42.0381L46.0414 44.2596V44.2589ZM69.4738 32.8439C69.4637 32.8604 69.5201 32.9543 69.4954 33.0229C68.4361 36.0009 67.2448 38.9364 66.2559 41.941C67.4923 49.0833 73.3467 53.8403 80.6845 52.1495C91.1012 49.7491 92.818 37.7958 82.9605 33.2044C79.3313 31.5142 74.9373 31.2241 71.0853 32.2682C70.8416 32.3342 69.5582 32.7062 69.4738 32.8439ZM66.8601 33.9775C66.7414 33.888 64.8373 34.9866 64.5708 35.1624L65.4955 38.1652L66.8595 33.9768L66.8601 33.9775Z" fill="url(#paint0_linear_103_1596)"/>
</g>
<defs>
<filter id="filter0_d_103_1596" x="10.0156" y="0" width="89.1562" height="68.3983" filterUnits="userSpaceOnUse" color-interpolation-filters="sRGB">
<feFlood flood-opacity="0" result="BackgroundImageFix"/>
<feColorMatrix in="SourceAlpha" type="matrix" values="0 0 0 0 0 0 0 0 0 0 0 0 0 0 0 0 0 0 127 0" result="hardAlpha"/>
<feOffset dy="4"/>
<feGaussianBlur stdDeviation="2"/>
<feComposite in2="hardAlpha" operator="out"/>
<feColorMatrix type="matrix" values="0 0 0 0 1 0 0 0 0 1 0 0 0 0 1 0 0 0 0.6 0"/>
<feBlend mode="normal" in2="BackgroundImageFix" result="effect1_dropShadow_103_1596"/>
<feBlend mode="normal" in="SourceGraphic" in2="effect1_dropShadow_103_1596" result="shape"/>
</filter>
<linearGradient id="paint0_linear_103_1596" x1="14.0158" y1="30.1985" x2="95.1689" y2="30.1985" gradientUnits="userSpaceOnUse">
<stop stop-color="#F3F3F3"/>
<stop offset="1" stop-color="white"/>
</linearGradient>
</defs>
</svg>
