<svg width="557" height="541" viewBox="0 0 557 541" fill="none" xmlns="http://www.w3.org/2000/svg">
<path d="M245.547 210.976C258.418 249.777 271.329 291.409 285.735 329.636C285.98 330.29 286.014 331.7 286.861 331.62L374.992 84.886L376.658 84.9144L452.019 311.711L473.543 300.272L475.652 297.219C489.138 253.654 502.185 209.879 515.829 166.32C520.218 152.294 529.53 130.816 531.645 117.325C534.243 100.702 523.908 91.9867 507.989 92.6007L507.455 89.4398H596.717L596.183 93.1692C579.304 92.2937 569.048 103.408 562.686 117.661L499.507 289.556C501.656 288.442 504.01 287.697 506.324 286.998C533.51 278.839 568.07 278.009 595.37 286.048C630.146 296.287 665.001 318.237 676.019 356.64C694.228 420.098 637.622 469.837 578.258 473.208C526.79 476.13 483.515 454.532 461.485 407.443C450.473 383.9 443.759 357.163 434.947 332.217C434.629 331.307 433.281 327.231 432.662 327.089C398.255 349 367.703 376.402 336.907 402.985C335.492 404.208 327.203 410.251 327.459 411.252C330.853 415.777 335.133 419.546 338.914 423.702C368.363 456.079 400.78 486.432 439.785 507.597C522.651 552.561 628.992 552.311 690.169 472.566C760.147 381.348 714.814 268.822 607.064 240.266C583.425 234.001 559.485 233.017 535.306 236.69L535.375 234.768L536.245 233.933C615.865 220.652 705.815 267.827 723.791 349.807C740.471 425.908 688.168 504.76 617.314 530.469C571.555 547.075 517.086 542.902 472.06 525.92C412.997 503.646 365.822 460.536 325.185 413.537C324.025 413.258 308.868 426.408 306.463 428.261C243.91 476.5 155.307 515.79 76.5231 483.697C11.6559 457.273 -19.6123 380.359 13.1113 316.833C56.9379 231.761 172.818 248.987 234.825 302.649L260.141 326.225C241.357 272.268 222.614 218.253 203.671 164.387C188.128 120.196 172.414 55.0789 136.211 23.771C119.866 9.63779 98.2061 1.66726 76.5061 1.88898V0.189136C78.4845 0.126599 80.4856 0.274407 82.4697 0.183445C146.672 -2.74439 182.858 29.513 204.848 87.0293C220.328 127.524 231.954 170.026 245.536 210.982L245.547 210.976ZM329.698 277.219C328.573 280.312 327.891 284.229 326.674 287.578C316.344 316.026 305.736 344.395 295.417 372.849L324.747 408.341C326.219 408.79 328.402 405.595 329.499 404.668C362.78 376.595 395.526 347.607 431.752 323.326L376.117 152.545C375.339 152.374 375.503 153.136 375.282 153.676C369.858 166.701 365.532 180.885 360.654 194.205C350.551 221.795 339.659 249.806 329.698 277.214V277.219ZM286.861 396.436L285.139 396.175L264.047 335.401C219.805 283.217 141.561 242.83 72.8164 267.941C4.55518 292.876 -16.042 378.21 23.5207 436.647C63.5326 495.744 140.316 501.332 203.597 481.156C247.594 467.131 288.191 440.513 322.677 410.365L293.973 376.544L286.861 396.442V396.436ZM496.75 294.189C496.659 294.337 497.165 295.179 496.943 295.793C487.455 322.467 476.784 348.761 467.926 375.674C479.001 439.649 531.441 482.259 597.166 467.114C690.47 445.612 705.849 338.545 617.553 297.418C585.046 282.279 545.687 279.681 511.184 289.033C509.001 289.624 497.506 292.956 496.75 294.189ZM473.339 304.343C472.276 303.541 455.22 313.382 452.832 314.957L461.116 341.853L473.333 304.337L473.339 304.343Z" fill="url(#paint0_linear_92_1383)" fill-opacity="0.06"/>
<defs>
<linearGradient id="paint0_linear_92_1383" x1="0.00140087" y1="270.494" x2="726.906" y2="270.494" gradientUnits="userSpaceOnUse">
<stop stop-color="#F3F3F3"/>
<stop offset="1" stop-color="white"/>
</linearGradient>
</defs>
</svg>
